<svg width="78" height="27" viewBox="0 0 78 27" fill="none" xmlns="http://www.w3.org/2000/svg">
<path d="M9.22 21.28C6.56933 21.28 4.488 20.636 2.976 19.348C1.48267 18.06 0.736 16.128 0.736 13.552V2.128C0.736 1.92267 0.801333 1.75467 0.932 1.624C1.06267 1.47467 1.23067 1.4 1.436 1.4H5.272C5.47733 1.4 5.64533 1.47467 5.776 1.624C5.92533 1.75467 6 1.92267 6 2.128V13.496C6 14.6533 6.27067 15.5213 6.812 16.1C7.372 16.6787 8.16533 16.968 9.192 16.968C10.2187 16.968 11.0027 16.6787 11.544 16.1C12.104 15.5027 12.384 14.6347 12.384 13.496V2.128C12.384 1.92267 12.4493 1.75467 12.58 1.624C12.7293 1.47467 12.9067 1.4 13.112 1.4H16.92C17.1253 1.4 17.2933 1.47467 17.424 1.624C17.5733 1.75467 17.648 1.92267 17.648 2.128V13.552C17.648 16.128 16.9013 18.06 15.408 19.348C13.9147 20.636 11.852 21.28 9.22 21.28ZM21.5115 21C21.3249 21 21.1569 20.9347 21.0075 20.804C20.8769 20.6547 20.8115 20.4867 20.8115 20.3V7.14C20.8115 6.93467 20.8769 6.76667 21.0075 6.636C21.1569 6.50533 21.3249 6.44 21.5115 6.44H24.9555C25.1609 6.44 25.3289 6.50533 25.4595 6.636C25.5902 6.76667 25.6555 6.93467 25.6555 7.14V8.204C26.1595 7.588 26.8035 7.09333 27.5875 6.72C28.3902 6.34667 29.3049 6.16 30.3315 6.16C31.3955 6.16 32.3382 6.40267 33.1595 6.888C33.9995 7.37333 34.6529 8.092 35.1195 9.044C35.6049 9.996 35.8475 11.144 35.8475 12.488V20.3C35.8475 20.4867 35.7822 20.6547 35.6515 20.804C35.5209 20.9347 35.3529 21 35.1475 21H31.4235C31.2182 21 31.0409 20.9347 30.8915 20.804C30.7609 20.6733 30.6955 20.5053 30.6955 20.3V12.656C30.6955 11.816 30.4902 11.172 30.0795 10.724C29.6875 10.276 29.1089 10.052 28.3435 10.052C27.5969 10.052 27.0089 10.2853 26.5795 10.752C26.1502 11.2 25.9355 11.8347 25.9355 12.656V20.3C25.9355 20.4867 25.8702 20.6547 25.7395 20.804C25.6089 20.9347 25.4409 21 25.2355 21H21.5115ZM39.4575 4.424C39.2522 4.424 39.0842 4.35867 38.9535 4.228C38.8229 4.07867 38.7575 3.90133 38.7575 3.696V1.092C38.7575 0.886665 38.8229 0.718665 38.9535 0.587999C39.1029 0.438665 39.2709 0.363999 39.4575 0.363999H42.9575C43.1629 0.363999 43.3309 0.438665 43.4615 0.587999C43.6109 0.718665 43.6855 0.886665 43.6855 1.092V3.696C43.6855 3.90133 43.6109 4.07867 43.4615 4.228C43.3309 4.35867 43.1629 4.424 42.9575 4.424H39.4575ZM39.4575 21C39.2709 21 39.1029 20.9347 38.9535 20.804C38.8229 20.6547 38.7575 20.4867 38.7575 20.3V7.14C38.7575 6.93467 38.8229 6.76667 38.9535 6.636C39.1029 6.50533 39.2709 6.44 39.4575 6.44H42.9575C43.1629 6.44 43.3309 6.50533 43.4615 6.636C43.6109 6.76667 43.6855 6.93467 43.6855 7.14V20.3C43.6855 20.5053 43.6109 20.6733 43.4615 20.804C43.3309 20.9347 43.1629 21 42.9575 21H39.4575ZM56.9711 26.32C56.7658 26.32 56.5884 26.2547 56.4391 26.124C56.3084 25.9933 56.2431 25.8253 56.2431 25.62V19.432C55.3471 20.664 54.0031 21.28 52.2111 21.28C50.4004 21.28 48.9724 20.7013 47.9271 19.544C46.8817 18.3867 46.3217 16.8 46.2471 14.784L46.2191 13.72L46.2471 12.684C46.3217 10.5933 46.8724 8.988 47.8991 7.868C48.9444 6.72933 50.3817 6.16 52.2111 6.16C53.1817 6.16 54.0217 6.33733 54.7311 6.692C55.4591 7.04667 56.0564 7.532 56.5231 8.148V7.14C56.5231 6.93467 56.5884 6.76667 56.7191 6.636C56.8684 6.50533 57.0458 6.44 57.2511 6.44H60.5831C60.7884 6.44 60.9564 6.50533 61.0871 6.636C61.2178 6.76667 61.2831 6.93467 61.2831 7.14V25.62C61.2831 25.8253 61.2178 25.9933 61.0871 26.124C60.9564 26.2547 60.7884 26.32 60.5831 26.32H56.9711ZM53.8071 17.388C54.5911 17.388 55.1791 17.1547 55.5711 16.688C55.9817 16.2027 56.2057 15.596 56.2431 14.868C56.2804 14.3827 56.2991 14.0373 56.2991 13.832C56.2991 13.608 56.2804 13.2533 56.2431 12.768C56.2057 11.9653 55.9911 11.312 55.5991 10.808C55.2257 10.304 54.6284 10.052 53.8071 10.052C52.9671 10.052 52.3697 10.304 52.0151 10.808C51.6604 11.2933 51.4551 11.9747 51.3991 12.852C51.3804 13.0387 51.3711 13.328 51.3711 13.72C51.3711 14.112 51.3804 14.4013 51.3991 14.588C51.4551 15.4653 51.6604 16.156 52.0151 16.66C52.3697 17.1453 52.9671 17.388 53.8071 17.388ZM68.7096 21.28C67.7203 21.28 66.815 21.0933 65.9936 20.72C65.191 20.328 64.5563 19.796 64.0896 19.124C63.6416 18.452 63.4176 17.7147 63.4176 16.912C63.4176 15.6427 63.9403 14.616 64.9856 13.832C66.0496 13.0293 67.5056 12.4787 69.3536 12.18L72.8256 11.648V11.312C72.8256 10.6213 72.6856 10.1173 72.4056 9.8C72.1256 9.48267 71.6496 9.324 70.9776 9.324C70.6043 9.324 70.287 9.38933 70.0256 9.52C69.783 9.65067 69.503 9.84667 69.1856 10.108C68.943 10.3133 68.7283 10.4627 68.5416 10.556C68.467 10.6867 68.3736 10.752 68.2616 10.752H65.0136C64.827 10.752 64.6683 10.696 64.5376 10.584C64.4256 10.4533 64.379 10.304 64.3976 10.136C64.4163 9.632 64.6683 9.072 65.1536 8.456C65.639 7.82133 66.3763 7.28 67.3656 6.832C68.355 6.384 69.5776 6.16 71.0336 6.16C73.3483 6.16 75.0656 6.67333 76.1856 7.7C77.3056 8.708 77.8656 10.08 77.8656 11.816V20.3C77.8656 20.4867 77.8003 20.6547 77.6696 20.804C77.539 20.9347 77.371 21 77.1656 21H73.7216C73.535 21 73.367 20.9347 73.2176 20.804C73.087 20.6547 73.0216 20.4867 73.0216 20.3V19.32C72.611 19.8987 72.0416 20.3747 71.3136 20.748C70.5856 21.1027 69.7176 21.28 68.7096 21.28ZM70.1096 17.976C70.931 17.976 71.5936 17.7053 72.0976 17.164C72.6203 16.6227 72.8816 15.8387 72.8816 14.812V14.476L70.5576 14.868C68.9896 15.1667 68.2056 15.7267 68.2056 16.548C68.2056 16.9773 68.383 17.3227 68.7376 17.584C69.111 17.8453 69.5683 17.976 70.1096 17.976Z" fill="white"/>
</svg>
